# Blender 4.2.1 LTS
# www.blender.org
mtllib fence.mtl
o Cylinder.001
v 0.000000 -0.124951 -5.196587
v 0.000000 2.494467 -5.196587
v 0.034346 -0.124951 -5.193204
v 0.034346 2.494467 -5.193204
v 0.067371 -0.124951 -5.183186
v 0.067371 2.494467 -5.183186
v 0.097808 -0.124951 -5.166917
v 0.097808 2.494467 -5.166917
v 0.124486 -0.124951 -5.145022
v 0.124486 2.494467 -5.145022
v 0.146380 -0.124951 -5.118345
v 0.146380 2.494467 -5.118345
v 0.162649 -0.124951 -5.087908
v 0.162649 2.494467 -5.087908
v 0.172667 -0.124951 -5.054882
v 0.172667 2.494467 -5.054882
v 0.176050 -0.124951 -5.020536
v 0.176050 2.494467 -5.020536
v 0.172667 -0.124951 -4.986191
v 0.172667 2.494467 -4.986191
v 0.162649 -0.124951 -4.953165
v 0.162649 2.494467 -4.953165
v 0.146380 -0.124951 -4.922728
v 0.146380 2.494467 -4.922728
v 0.124486 -0.124951 -4.896050
v 0.124486 2.494467 -4.896050
v 0.097808 -0.124951 -4.874156
v 0.097808 2.494467 -4.874156
v 0.067371 -0.124951 -4.857887
v 0.067371 2.494467 -4.857887
v 0.034346 -0.124951 -4.847869
v 0.034346 2.494467 -4.847869
v 0.000000 -0.124951 -4.844486
v 0.000000 2.494467 -4.844486
v -0.034346 -0.124951 -4.847869
v -0.034346 2.494467 -4.847869
v -0.067371 -0.124951 -4.857887
v -0.067371 2.494467 -4.857887
v -0.097808 -0.124951 -4.874156
v -0.097808 2.494467 -4.874156
v -0.124486 -0.124951 -4.896050
v -0.124486 2.494467 -4.896050
v -0.146380 -0.124951 -4.922728
v -0.146380 2.494467 -4.922728
v -0.162649 -0.124951 -4.953165
v -0.162649 2.494467 -4.953165
v -0.172667 -0.124951 -4.986191
v -0.172667 2.494467 -4.986191
v -0.176050 -0.124951 -5.020536
v -0.176050 2.494467 -5.020536
v -0.172667 -0.124951 -5.054882
v -0.172667 2.494467 -5.054882
v -0.162649 -0.124951 -5.087908
v -0.162649 2.494467 -5.087908
v -0.146380 -0.124951 -5.118345
v -0.146380 2.494467 -5.118345
v -0.124486 -0.124951 -5.145022
v -0.124486 2.494467 -5.145022
v -0.097808 -0.124951 -5.166917
v -0.097808 2.494467 -5.166917
v -0.067371 -0.124951 -5.183186
v -0.067371 2.494467 -5.183186
v -0.034346 -0.124951 -5.193204
v -0.034346 2.494467 -5.193204
v 0.000000 -0.124951 -0.176050
v 0.000000 2.494467 -0.176050
v 0.034346 -0.124951 -0.172667
v 0.034346 2.494467 -0.172667
v 0.067371 -0.124951 -0.162649
v 0.067371 2.494467 -0.162649
v 0.097808 -0.124951 -0.146380
v 0.097808 2.494467 -0.146380
v 0.124486 -0.124951 -0.124486
v 0.124486 2.494467 -0.124486
v 0.146380 -0.124951 -0.097808
v 0.146380 2.494467 -0.097808
v 0.162649 -0.124951 -0.067371
v 0.162649 2.494467 -0.067371
v 0.172667 -0.124951 -0.034346
v 0.172667 2.494467 -0.034346
v 0.176050 -0.124951 0.000000
v 0.176050 2.494467 0.000000
v 0.172667 -0.124951 0.034346
v 0.172667 2.494467 0.034346
v 0.162649 -0.124951 0.067371
v 0.162649 2.494467 0.067371
v 0.146380 -0.124951 0.097808
v 0.146380 2.494467 0.097808
v 0.124486 -0.124951 0.124486
v 0.124486 2.494467 0.124486
v 0.097808 -0.124951 0.146380
v 0.097808 2.494467 0.146380
v 0.067371 -0.124951 0.162649
v 0.067371 2.494467 0.162649
v 0.034346 -0.124951 0.172668
v 0.034346 2.494467 0.172668
v 0.000000 -0.124951 0.176050
v 0.000000 2.494467 0.176050
v -0.034346 -0.124951 0.172668
v -0.034346 2.494467 0.172668
v -0.067371 -0.124951 0.162649
v -0.067371 2.494467 0.162649
v -0.097808 -0.124951 0.146380
v -0.097808 2.494467 0.146380
v -0.124486 -0.124951 0.124486
v -0.124486 2.494467 0.124486
v -0.146380 -0.124951 0.097808
v -0.146380 2.494467 0.097808
v -0.162649 -0.124951 0.067371
v -0.162649 2.494467 0.067371
v -0.172667 -0.124951 0.034346
v -0.172667 2.494467 0.034346
v -0.176050 -0.124951 0.000000
v -0.176050 2.494467 0.000000
v -0.172667 -0.124951 -0.034346
v -0.172667 2.494467 -0.034346
v -0.162649 -0.124951 -0.067371
v -0.162649 2.494467 -0.067371
v -0.146380 -0.124951 -0.097808
v -0.146380 2.494467 -0.097808
v -0.124486 -0.124951 -0.124486
v -0.124486 2.494467 -0.124486
v -0.097808 -0.124951 -0.146380
v -0.097808 2.494467 -0.146380
v -0.067371 -0.124951 -0.162649
v -0.067371 2.494467 -0.162649
v -0.034346 -0.124951 -0.172667
v -0.034346 2.494467 -0.172667
v 0.000000 0.173387 -5.314775
v 0.000000 2.285385 0.262016
v 0.023370 0.171195 -5.314070
v 0.023370 2.283194 0.262720
v 0.045843 0.164705 -5.311986
v 0.045843 2.276703 0.264804
v 0.066553 0.154165 -5.308602
v 0.066553 2.266163 0.268188
v 0.084706 0.139981 -5.304048
v 0.084706 2.251979 0.272743
v 0.099604 0.122697 -5.298498
v 0.099604 2.234695 0.278292
v 0.110674 0.102978 -5.292166
v 0.110674 2.214976 0.284624
v 0.117491 0.081581 -5.285296
v 0.117491 2.193580 0.291494
v 0.119792 0.059330 -5.278151
v 0.119792 2.171329 0.298639
v 0.117491 0.037079 -5.271007
v 0.117491 2.149077 0.305784
v 0.110674 0.015682 -5.264136
v 0.110674 2.127681 0.312654
v 0.099604 -0.004037 -5.257805
v 0.099604 2.107962 0.318985
v 0.084706 -0.021320 -5.252255
v 0.084706 2.090678 0.324535
v 0.066553 -0.035505 -5.247700
v 0.066553 2.076494 0.329090
v 0.045843 -0.046045 -5.244316
v 0.045843 2.065953 0.332474
v 0.023370 -0.052535 -5.242232
v 0.023370 2.059463 0.334558
v 0.000000 -0.054727 -5.241529
v 0.000000 2.057271 0.335262
v -0.023370 -0.052535 -5.242232
v -0.023370 2.059463 0.334558
v -0.045843 -0.046045 -5.244316
v -0.045843 2.065953 0.332474
v -0.066553 -0.035505 -5.247700
v -0.066553 2.076494 0.329090
v -0.084706 -0.021320 -5.252255
v -0.084706 2.090678 0.324535
v -0.099604 -0.004037 -5.257805
v -0.099604 2.107962 0.318985
v -0.110674 0.015682 -5.264136
v -0.110674 2.127681 0.312654
v -0.117491 0.037079 -5.271007
v -0.117491 2.149077 0.305784
v -0.119792 0.059330 -5.278151
v -0.119792 2.171329 0.298639
v -0.117491 0.081581 -5.285296
v -0.117491 2.193580 0.291494
v -0.110674 0.102978 -5.292166
v -0.110674 2.214976 0.284624
v -0.099604 0.122697 -5.298498
v -0.099604 2.234695 0.278292
v -0.084706 0.139981 -5.304048
v -0.084706 2.251979 0.272743
v -0.066553 0.154165 -5.308602
v -0.066553 2.266163 0.268188
v -0.045843 0.164705 -5.311986
v -0.045843 2.276703 0.264804
v -0.023370 0.171195 -5.314070
v -0.023370 2.283194 0.262720
v 0.000684 0.173387 0.265827
v 0.032642 2.285385 -5.310873
v -0.022682 0.171195 0.264989
v 0.009276 2.283194 -5.311710
v -0.045142 0.164705 0.262776
v -0.013184 2.276703 -5.313923
v -0.065832 0.154165 0.259273
v -0.033875 2.266163 -5.317426
v -0.083959 0.139981 0.254614
v -0.052002 2.251979 -5.322084
v -0.098825 0.122697 0.248979
v -0.066867 2.234695 -5.327719
v -0.109858 0.102978 0.242585
v -0.077901 2.214976 -5.334114
v -0.116636 0.081581 0.235675
v -0.084678 2.193580 -5.341023
v -0.118896 0.059330 0.228518
v -0.086939 2.171329 -5.348181
v -0.116554 0.037079 0.221386
v -0.084596 2.149077 -5.355312
v -0.109698 0.015682 0.214555
v -0.077740 2.127681 -5.362144
v -0.098591 -0.004037 0.208287
v -0.066634 2.107962 -5.368412
v -0.083662 -0.021320 0.202823
v -0.051705 2.090678 -5.373876
v -0.065483 -0.035505 0.198372
v -0.033526 2.076494 -5.378326
v -0.044754 -0.046045 0.195107
v -0.012796 2.065953 -5.381592
v -0.022270 -0.052535 0.193151
v 0.009687 2.059463 -5.383547
v 0.001104 -0.054727 0.192582
v 0.033061 2.057271 -5.384117
v 0.024470 -0.052535 0.193419
v 0.056427 2.059463 -5.383279
v 0.046930 -0.046045 0.195632
v 0.078887 2.065953 -5.381066
v 0.067621 -0.035505 0.199135
v 0.099578 2.076494 -5.377563
v 0.085747 -0.021320 0.203794
v 0.117705 2.090678 -5.372905
v 0.100613 -0.004037 0.209429
v 0.132570 2.107962 -5.367270
v 0.111646 0.015682 0.215824
v 0.143604 2.127681 -5.360875
v 0.118424 0.037079 0.222733
v 0.150381 2.149077 -5.353966
v 0.120685 0.059330 0.229890
v 0.152642 2.171329 -5.346808
v 0.118342 0.081581 0.237022
v 0.150299 2.193580 -5.339677
v 0.111486 0.102978 0.243853
v 0.143443 2.214976 -5.332846
v 0.100380 0.122697 0.250121
v 0.132337 2.234695 -5.326578
v 0.085450 0.139981 0.255586
v 0.117408 2.251979 -5.321114
v 0.067272 0.154165 0.260036
v 0.099229 2.266163 -5.316663
v 0.046542 0.164705 0.263301
v 0.078499 2.276703 -5.313397
v 0.024058 0.171195 0.265257
v 0.056016 2.283194 -5.311442
vn 0.0980 -0.0000 -0.9952
vn 0.2903 -0.0000 -0.9569
vn 0.4714 -0.0000 -0.8819
vn 0.6344 -0.0000 -0.7730
vn 0.7730 -0.0000 -0.6344
vn 0.8819 -0.0000 -0.4714
vn 0.9569 -0.0000 -0.2903
vn 0.9952 -0.0000 -0.0980
vn 0.9952 -0.0000 0.0980
vn 0.9569 -0.0000 0.2903
vn 0.8819 -0.0000 0.4714
vn 0.7730 -0.0000 0.6344
vn 0.6344 -0.0000 0.7730
vn 0.4714 -0.0000 0.8819
vn 0.2903 -0.0000 0.9569
vn 0.0980 -0.0000 0.9952
vn -0.0980 -0.0000 0.9952
vn -0.2903 -0.0000 0.9569
vn -0.4714 -0.0000 0.8819
vn -0.6344 -0.0000 0.7730
vn -0.7730 -0.0000 0.6344
vn -0.8819 -0.0000 0.4714
vn -0.9569 -0.0000 0.2903
vn -0.9952 -0.0000 0.0980
vn -0.9952 -0.0000 -0.0980
vn -0.9569 -0.0000 -0.2903
vn -0.8819 -0.0000 -0.4714
vn -0.7730 -0.0000 -0.6344
vn -0.6344 -0.0000 -0.7730
vn -0.4714 -0.0000 -0.8819
vn -0.0000 1.0000 -0.0000
vn -0.2903 -0.0000 -0.9569
vn -0.0980 -0.0000 -0.9952
vn -0.0000 -1.0000 -0.0000
vn 0.0979 0.9307 -0.3525
vn 0.2899 0.8950 -0.3390
vn 0.4709 0.8250 -0.3124
vn 0.6339 0.7233 -0.2739
vn 0.7726 0.5937 -0.2249
vn 0.8817 0.4413 -0.1671
vn 0.9568 0.2718 -0.1029
vn 0.9952 0.0918 -0.0348
vn 0.9952 -0.0918 0.0348
vn 0.9568 -0.2718 0.1029
vn 0.8817 -0.4413 0.1671
vn 0.7726 -0.5937 0.2249
vn 0.6339 -0.7233 0.2739
vn 0.4709 -0.8250 0.3124
vn 0.2899 -0.8950 0.3390
vn 0.0979 -0.9307 0.3525
vn -0.0979 -0.9307 0.3525
vn -0.2899 -0.8950 0.3390
vn -0.4709 -0.8250 0.3124
vn -0.6339 -0.7233 0.2739
vn -0.7726 -0.5937 0.2249
vn -0.8817 -0.4413 0.1671
vn -0.9568 -0.2718 0.1029
vn -0.9952 -0.0918 0.0348
vn -0.9952 0.0918 -0.0348
vn -0.9568 0.2718 -0.1029
vn -0.8817 0.4413 -0.1671
vn -0.7726 0.5937 -0.2249
vn -0.6339 0.7233 -0.2739
vn -0.4709 0.8250 -0.3124
vn -0.0000 0.3057 0.9521
vn -0.2899 0.8950 -0.3390
vn -0.0979 0.9307 -0.3525
vn -0.0000 -0.3057 -0.9521
vn -0.0999 0.9307 0.3519
vn -0.2919 0.8950 0.3373
vn -0.4727 0.8250 0.3097
vn -0.6355 0.7233 0.2703
vn -0.7739 0.5937 0.2204
vn -0.8826 0.4413 0.1621
vn -0.9574 0.2718 0.0974
vn -0.9954 0.0918 0.0291
vn -0.9950 -0.0918 -0.0405
vn -0.9562 -0.2718 -0.1084
vn -0.8807 -0.4413 -0.1722
vn -0.7713 -0.5937 -0.2293
vn -0.6323 -0.7233 -0.2775
vn -0.4691 -0.8250 -0.3151
vn -0.2880 -0.8950 -0.3406
vn -0.0959 -0.9307 -0.3530
vn 0.0999 -0.9307 -0.3519
vn 0.2919 -0.8950 -0.3373
vn 0.4727 -0.8250 -0.3097
vn 0.6355 -0.7233 -0.2703
vn 0.7739 -0.5937 -0.2204
vn 0.8826 -0.4413 -0.1621
vn 0.9574 -0.2718 -0.0974
vn 0.9954 -0.0918 -0.0291
vn 0.9950 0.0918 0.0405
vn 0.9562 0.2718 0.1084
vn 0.8807 0.4413 0.1722
vn 0.7713 0.5937 0.2293
vn 0.6323 0.7233 0.2775
vn 0.4691 0.8250 0.3151
vn 0.0055 0.3057 -0.9521
vn 0.2880 0.8950 0.3406
vn 0.0959 0.9307 0.3530
vn -0.0055 -0.3057 0.9521
vt 1.000000 0.573031
vt 1.000000 1.000000
vt 0.968750 1.000000
vt 0.968750 0.573031
vt 0.937500 1.000000
vt 0.937500 0.573031
vt 0.906250 1.000000
vt 0.906250 0.573031
vt 0.875000 1.000000
vt 0.875000 0.573031
vt 0.843750 1.000000
vt 0.843750 0.573031
vt 0.812500 1.000000
vt 0.812500 0.573031
vt 0.781250 1.000000
vt 0.781250 0.573031
vt 0.750000 1.000000
vt 0.750000 0.573031
vt 0.718750 1.000000
vt 0.718750 0.573031
vt 0.687500 1.000000
vt 0.687500 0.573031
vt 0.656250 1.000000
vt 0.656250 0.573031
vt 0.625000 1.000000
vt 0.625000 0.573031
vt 0.593750 1.000000
vt 0.593750 0.573031
vt 0.562500 1.000000
vt 0.562500 0.573031
vt 0.531250 1.000000
vt 0.531250 0.573031
vt 0.500000 1.000000
vt 0.500000 0.573031
vt 0.468750 1.000000
vt 0.468750 0.573031
vt 0.437500 1.000000
vt 0.437500 0.573031
vt 0.406250 1.000000
vt 0.406250 0.573031
vt 0.375000 1.000000
vt 0.375000 0.573031
vt 0.343750 1.000000
vt 0.343750 0.573031
vt 0.312500 1.000000
vt 0.312500 0.573031
vt 0.281250 1.000000
vt 0.281250 0.573031
vt 0.250000 1.000000
vt 0.250000 0.573031
vt 0.218750 1.000000
vt 0.218750 0.573031
vt 0.187500 1.000000
vt 0.187500 0.573031
vt 0.156250 1.000000
vt 0.156250 0.573031
vt 0.125000 1.000000
vt 0.125000 0.573031
vt 0.093750 1.000000
vt 0.093750 0.573031
vt 0.062500 1.000000
vt 0.062500 0.573031
vt 0.540168 0.477973
vt 0.473812 0.482439
vt 0.407456 0.477973
vt 0.342743 0.464746
vt 0.281477 0.443266
vt 0.225736 0.414359
vt 0.177922 0.379136
vt 0.140671 0.338951
vt 0.116647 0.295347
vt 0.108214 0.250000
vt 0.116647 0.204653
vt 0.140671 0.161049
vt 0.177922 0.120864
vt 0.225736 0.085641
vt 0.281477 0.056734
vt 0.342743 0.035254
vt 0.407456 0.022027
vt 0.473812 0.017561
vt 0.540168 0.022027
vt 0.604876 0.035254
vt 0.666123 0.056734
vt 0.721812 0.085641
vt 0.769526 0.120864
vt 0.806635 0.161049
vt 0.830520 0.204653
vt 0.838891 0.250000
vt 0.830519 0.295347
vt 0.806635 0.338951
vt 0.769526 0.379136
vt 0.721812 0.414359
vt 0.666123 0.443266
vt 0.604876 0.464746
vt 0.031250 1.000000
vt 0.031250 0.573031
vt 0.000000 1.000000
vt 0.000000 0.573031
vt 0.477368 0.481526
vt 0.543155 0.477173
vt 0.607556 0.464271
vt 0.668667 0.443307
vt 0.724307 0.415088
vt 0.772002 0.380693
vt 0.809093 0.341447
vt 0.832955 0.298873
vt 0.841313 0.254651
vt 0.832955 0.210538
vt 0.809093 0.168257
vt 0.772002 0.129417
vt 0.724307 0.095468
vt 0.668667 0.067661
vt 0.607556 0.047030
vt 0.543155 0.034345
vt 0.477368 0.030071
vt 0.411917 0.034348
vt 0.348482 0.047046
vt 0.288833 0.067706
vt 0.234937 0.095549
vt 0.189001 0.129532
vt 0.153411 0.168388
vt 0.130561 0.210662
vt 0.122566 0.254749
vt 0.130561 0.298933
vt 0.153411 0.341471
vt 0.189001 0.380694
vt 0.234937 0.415078
vt 0.288833 0.443299
vt 0.348482 0.464267
vt 0.411917 0.477173
vt 0.999065 0.573031
vt 0.999065 1.000000
vt 0.967873 1.000000
vt 0.967873 0.573031
vt 0.936682 1.000000
vt 0.936682 0.573031
vt 0.905490 1.000000
vt 0.905490 0.573031
vt 0.874299 1.000000
vt 0.874299 0.573031
vt 0.843107 1.000000
vt 0.843107 0.573031
vt 0.811915 1.000000
vt 0.811915 0.573031
vt 0.780724 1.000000
vt 0.780724 0.573031
vt 0.749532 1.000000
vt 0.749532 0.573031
vt 0.718341 1.000000
vt 0.718341 0.573031
vt 0.687149 1.000000
vt 0.687149 0.573031
vt 0.655958 1.000000
vt 0.655958 0.573031
vt 0.624766 1.000000
vt 0.624766 0.573031
vt 0.593575 1.000000
vt 0.593575 0.573031
vt 0.562383 1.000000
vt 0.562383 0.573031
vt 0.531192 1.000000
vt 0.531192 0.573031
vt 0.468808 1.000000
vt 0.468808 0.573031
vt 0.437617 1.000000
vt 0.437617 0.573031
vt 0.406425 1.000000
vt 0.406425 0.573031
vt 0.375234 1.000000
vt 0.375234 0.573031
vt 0.344042 1.000000
vt 0.344042 0.573031
vt 0.312851 1.000000
vt 0.312851 0.573031
vt 0.281659 1.000000
vt 0.281659 0.573031
vt 0.250468 1.000000
vt 0.250468 0.573031
vt 0.219276 1.000000
vt 0.219276 0.573031
vt 0.188085 1.000000
vt 0.188085 0.573031
vt 0.156893 1.000000
vt 0.156893 0.573031
vt 0.125701 1.000000
vt 0.125701 0.573031
vt 0.094510 1.000000
vt 0.094510 0.573031
vt 0.063318 1.000000
vt 0.063318 0.573031
vt 0.032127 1.000000
vt 0.032127 0.573031
vt 0.000935 1.000000
vt 0.000935 0.573031
s 0
usemtl Material.001
f 1/1/1 2/2/1 4/3/1 3/4/1
f 3/4/2 4/3/2 6/5/2 5/6/2
f 5/6/3 6/5/3 8/7/3 7/8/3
f 7/8/4 8/7/4 10/9/4 9/10/4
f 9/10/5 10/9/5 12/11/5 11/12/5
f 11/12/6 12/11/6 14/13/6 13/14/6
f 13/14/7 14/13/7 16/15/7 15/16/7
f 15/16/8 16/15/8 18/17/8 17/18/8
f 17/18/9 18/17/9 20/19/9 19/20/9
f 19/20/10 20/19/10 22/21/10 21/22/10
f 21/22/11 22/21/11 24/23/11 23/24/11
f 23/24/12 24/23/12 26/25/12 25/26/12
f 25/26/13 26/25/13 28/27/13 27/28/13
f 27/28/14 28/27/14 30/29/14 29/30/14
f 29/30/15 30/29/15 32/31/15 31/32/15
f 31/32/16 32/31/16 34/33/16 33/34/16
f 33/34/17 34/33/17 36/35/17 35/36/17
f 35/36/18 36/35/18 38/37/18 37/38/18
f 37/38/19 38/37/19 40/39/19 39/40/19
f 39/40/20 40/39/20 42/41/20 41/42/20
f 41/42/21 42/41/21 44/43/21 43/44/21
f 43/44/22 44/43/22 46/45/22 45/46/22
f 45/46/23 46/45/23 48/47/23 47/48/23
f 47/48/24 48/47/24 50/49/24 49/50/24
f 49/50/25 50/49/25 52/51/25 51/52/25
f 51/52/26 52/51/26 54/53/26 53/54/26
f 53/54/27 54/53/27 56/55/27 55/56/27
f 55/56/28 56/55/28 58/57/28 57/58/28
f 57/58/29 58/57/29 60/59/29 59/60/29
f 59/60/30 60/59/30 62/61/30 61/62/30
f 4/63/31 2/64/31 64/65/31 62/66/31 60/67/31 58/68/31 56/69/31 54/70/31 52/71/31 50/72/31 48/73/31 46/74/31 44/75/31 42/76/31 40/77/31 38/78/31 36/79/31 34/80/31 32/81/31 30/82/31 28/83/31 26/84/31 24/85/31 22/86/31 20/87/31 18/88/31 16/89/31 14/90/31 12/91/31 10/92/31 8/93/31 6/94/31
f 61/62/32 62/61/32 64/95/32 63/96/32
f 63/96/33 64/95/33 2/97/33 1/98/33
f 1/99/34 3/100/34 5/101/34 7/102/34 9/103/34 11/104/34 13/105/34 15/106/34 17/107/34 19/108/34 21/109/34 23/110/34 25/111/34 27/112/34 29/113/34 31/114/34 33/115/34 35/116/34 37/117/34 39/118/34 41/119/34 43/120/34 45/121/34 47/122/34 49/123/34 51/124/34 53/125/34 55/126/34 57/127/34 59/128/34 61/129/34 63/130/34
usemtl Material
f 65/1/1 66/2/1 68/3/1 67/4/1
f 67/4/2 68/3/2 70/5/2 69/6/2
f 69/6/3 70/5/3 72/7/3 71/8/3
f 71/8/4 72/7/4 74/9/4 73/10/4
f 73/10/5 74/9/5 76/11/5 75/12/5
f 75/12/6 76/11/6 78/13/6 77/14/6
f 77/14/7 78/13/7 80/15/7 79/16/7
f 79/16/8 80/15/8 82/17/8 81/18/8
f 81/18/9 82/17/9 84/19/9 83/20/9
f 83/20/10 84/19/10 86/21/10 85/22/10
f 85/22/11 86/21/11 88/23/11 87/24/11
f 87/24/12 88/23/12 90/25/12 89/26/12
f 89/26/13 90/25/13 92/27/13 91/28/13
f 91/28/14 92/27/14 94/29/14 93/30/14
f 93/30/15 94/29/15 96/31/15 95/32/15
f 95/32/16 96/31/16 98/33/16 97/34/16
f 97/34/17 98/33/17 100/35/17 99/36/17
f 99/36/18 100/35/18 102/37/18 101/38/18
f 101/38/19 102/37/19 104/39/19 103/40/19
f 103/40/20 104/39/20 106/41/20 105/42/20
f 105/42/21 106/41/21 108/43/21 107/44/21
f 107/44/22 108/43/22 110/45/22 109/46/22
f 109/46/23 110/45/23 112/47/23 111/48/23
f 111/48/24 112/47/24 114/49/24 113/50/24
f 113/50/25 114/49/25 116/51/25 115/52/25
f 115/52/26 116/51/26 118/53/26 117/54/26
f 117/54/27 118/53/27 120/55/27 119/56/27
f 119/56/28 120/55/28 122/57/28 121/58/28
f 121/58/29 122/57/29 124/59/29 123/60/29
f 123/60/30 124/59/30 126/61/30 125/62/30
f 68/63/31 66/64/31 128/65/31 126/66/31 124/67/31 122/68/31 120/69/31 118/70/31 116/71/31 114/72/31 112/73/31 110/74/31 108/75/31 106/76/31 104/77/31 102/78/31 100/79/31 98/80/31 96/81/31 94/82/31 92/83/31 90/84/31 88/85/31 86/86/31 84/87/31 82/88/31 80/89/31 78/90/31 76/91/31 74/92/31 72/93/31 70/94/31
f 125/62/32 126/61/32 128/95/32 127/96/32
f 127/96/33 128/95/33 66/97/33 65/98/33
f 65/99/34 67/100/34 69/101/34 71/102/34 73/103/34 75/104/34 77/105/34 79/106/34 81/107/34 83/108/34 85/109/34 87/110/34 89/111/34 91/112/34 93/113/34 95/114/34 97/115/34 99/116/34 101/117/34 103/118/34 105/119/34 107/120/34 109/121/34 111/122/34 113/123/34 115/124/34 117/125/34 119/126/34 121/127/34 123/128/34 125/129/34 127/130/34
usemtl Material.002
f 129/1/35 130/2/35 132/3/35 131/4/35
f 131/4/36 132/3/36 134/5/36 133/6/36
f 133/6/37 134/5/37 136/7/37 135/8/37
f 135/8/38 136/7/38 138/9/38 137/10/38
f 137/10/39 138/9/39 140/11/39 139/12/39
f 139/12/40 140/11/40 142/13/40 141/14/40
f 141/14/41 142/13/41 144/15/41 143/16/41
f 143/16/42 144/15/42 146/17/42 145/18/42
f 145/18/43 146/17/43 148/19/43 147/20/43
f 147/20/44 148/19/44 150/21/44 149/22/44
f 149/22/45 150/21/45 152/23/45 151/24/45
f 151/24/46 152/23/46 154/25/46 153/26/46
f 153/26/47 154/25/47 156/27/47 155/28/47
f 155/28/48 156/27/48 158/29/48 157/30/48
f 157/30/49 158/29/49 160/31/49 159/32/49
f 159/32/50 160/31/50 162/33/50 161/34/50
f 161/34/51 162/33/51 164/35/51 163/36/51
f 163/36/52 164/35/52 166/37/52 165/38/52
f 165/38/53 166/37/53 168/39/53 167/40/53
f 167/40/54 168/39/54 170/41/54 169/42/54
f 169/42/55 170/41/55 172/43/55 171/44/55
f 171/44/56 172/43/56 174/45/56 173/46/56
f 173/46/57 174/45/57 176/47/57 175/48/57
f 175/48/58 176/47/58 178/49/58 177/50/58
f 177/50/59 178/49/59 180/51/59 179/52/59
f 179/52/60 180/51/60 182/53/60 181/54/60
f 181/54/61 182/53/61 184/55/61 183/56/61
f 183/56/62 184/55/62 186/57/62 185/58/62
f 185/58/63 186/57/63 188/59/63 187/60/63
f 187/60/64 188/59/64 190/61/64 189/62/64
f 132/63/65 130/64/65 192/65/65 190/66/65 188/67/65 186/68/65 184/69/65 182/70/65 180/71/65 178/72/65 176/73/65 174/74/65 172/75/65 170/76/65 168/77/65 166/78/65 164/79/65 162/80/65 160/81/65 158/82/65 156/83/65 154/84/65 152/85/65 150/86/65 148/87/65 146/88/65 144/89/65 142/90/65 140/91/65 138/92/65 136/93/65 134/94/65
f 189/62/66 190/61/66 192/95/66 191/96/66
f 191/96/67 192/95/67 130/97/67 129/98/67
f 129/99/68 131/100/68 133/101/68 135/102/68 137/103/68 139/104/68 141/105/68 143/106/68 145/107/68 147/108/68 149/109/68 151/110/68 153/111/68 155/112/68 157/113/68 159/114/68 161/115/68 163/116/68 165/117/68 167/118/68 169/119/68 171/120/68 173/121/68 175/122/68 177/123/68 179/124/68 181/125/68 183/126/68 185/127/68 187/128/68 189/129/68 191/130/68
usemtl Material.003
f 193/131/69 194/132/69 196/133/69 195/134/69
f 195/134/70 196/133/70 198/135/70 197/136/70
f 197/136/71 198/135/71 200/137/71 199/138/71
f 199/138/72 200/137/72 202/139/72 201/140/72
f 201/140/73 202/139/73 204/141/73 203/142/73
f 203/142/74 204/141/74 206/143/74 205/144/74
f 205/144/75 206/143/75 208/145/75 207/146/75
f 207/146/76 208/145/76 210/147/76 209/148/76
f 209/148/77 210/147/77 212/149/77 211/150/77
f 211/150/78 212/149/78 214/151/78 213/152/78
f 213/152/79 214/151/79 216/153/79 215/154/79
f 215/154/80 216/153/80 218/155/80 217/156/80
f 217/156/81 218/155/81 220/157/81 219/158/81
f 219/158/82 220/157/82 222/159/82 221/160/82
f 221/160/83 222/159/83 224/161/83 223/162/83
f 223/162/84 224/161/84 226/33/84 225/34/84
f 225/34/85 226/33/85 228/163/85 227/164/85
f 227/164/86 228/163/86 230/165/86 229/166/86
f 229/166/87 230/165/87 232/167/87 231/168/87
f 231/168/88 232/167/88 234/169/88 233/170/88
f 233/170/89 234/169/89 236/171/89 235/172/89
f 235/172/90 236/171/90 238/173/90 237/174/90
f 237/174/91 238/173/91 240/175/91 239/176/91
f 239/176/92 240/175/92 242/177/92 241/178/92
f 241/178/93 242/177/93 244/179/93 243/180/93
f 243/180/94 244/179/94 246/181/94 245/182/94
f 245/182/95 246/181/95 248/183/95 247/184/95
f 247/184/96 248/183/96 250/185/96 249/186/96
f 249/186/97 250/185/97 252/187/97 251/188/97
f 251/188/98 252/187/98 254/189/98 253/190/98
f 196/63/99 194/64/99 256/65/99 254/66/99 252/67/99 250/68/99 248/69/99 246/70/99 244/71/99 242/72/99 240/73/99 238/74/99 236/75/99 234/76/99 232/77/99 230/78/99 228/79/99 226/80/99 224/81/99 222/82/99 220/83/99 218/84/99 216/85/99 214/86/99 212/87/99 210/88/99 208/89/99 206/90/99 204/91/99 202/92/99 200/93/99 198/94/99
f 253/190/100 254/189/100 256/191/100 255/192/100
f 255/192/101 256/191/101 194/193/101 193/194/101
f 193/99/102 195/100/102 197/101/102 199/102/102 201/103/102 203/104/102 205/105/102 207/106/102 209/107/102 211/108/102 213/109/102 215/110/102 217/111/102 219/112/102 221/113/102 223/114/102 225/115/102 227/116/102 229/117/102 231/118/102 233/119/102 235/120/102 237/121/102 239/122/102 241/123/102 243/124/102 245/125/102 247/126/102 249/127/102 251/128/102 253/129/102 255/130/102
